<svg id="Place_your_logo_files_here" data-name="Place your logo files here" xmlns="http://www.w3.org/2000/svg" xmlns:xlink="http://www.w3.org/1999/xlink" viewBox="0 0 576 216"><defs><style>.cls-1{fill:#231f20;}.cls-2{fill:#e51660;}.cls-3{opacity:0.57;fill:url(#linear-gradient);}.cls-4,.cls-5,.cls-6{fill:#d0d2d3;}.cls-10,.cls-11,.cls-12,.cls-5{stroke:#fff;}.cls-11,.cls-12,.cls-5,.cls-6{stroke-miterlimit:10;}.cls-10,.cls-11,.cls-5,.cls-6{stroke-width:0.5px;}.cls-6{stroke:#bbbdbf;}.cls-7{fill:url(#linear-gradient-2);}.cls-8{fill:url(#linear-gradient-3);}.cls-9{fill:url(#linear-gradient-4);}.cls-10,.cls-11,.cls-12{fill:none;stroke-linecap:square;}.cls-10{stroke-linejoin:round;}.cls-12{stroke-width:0.25px;}.cls-13{fill:url(#linear-gradient-5);}.cls-14{fill:url(#linear-gradient-6);}.cls-15{fill:url(#linear-gradient-7);}.cls-16{fill:#fff;}</style><linearGradient id="linear-gradient" x1="90.16" y1="47.17" x2="90.16" y2="137.36" gradientUnits="userSpaceOnUse"><stop offset="0" stop-color="#fff"/><stop offset="0.12" stop-color="#fbfeff"/><stop offset="0.25" stop-color="#effafe"/><stop offset="0.37" stop-color="#daf3fd"/><stop offset="0.5" stop-color="#bdeafb"/><stop offset="0.63" stop-color="#98def8"/><stop offset="0.76" stop-color="#6bcff5"/><stop offset="0.89" stop-color="#36bef2"/><stop offset="1" stop-color="#00adee"/></linearGradient><linearGradient id="linear-gradient-2" x1="124.04" y1="-30.11" x2="123.82" y2="29.12" gradientTransform="translate(-25.94 175.11) rotate(-10.56)" gradientUnits="userSpaceOnUse"><stop offset="0" stop-color="#fff"/><stop offset="1"/></linearGradient><linearGradient id="linear-gradient-3" x1="90.72" y1="118.23" x2="90.5" y2="174.99" gradientTransform="matrix(1, 0, 0, 1, 0, 0)" xlink:href="#linear-gradient-2"/><linearGradient id="linear-gradient-4" x1="191.95" y1="1071.15" x2="191.95" y2="1072.67" gradientTransform="matrix(1, 0, 0, -1, -135.84, 1158.93)" gradientUnits="userSpaceOnUse"><stop offset="0" stop-color="#fff"/><stop offset="0.29" stop-color="#fbfbfb"/><stop offset="0.58" stop-color="#efeff0"/><stop offset="0.88" stop-color="#dadcdd"/><stop offset="1" stop-color="#d0d2d3"/></linearGradient><linearGradient id="linear-gradient-5" x1="104.17" y1="55.42" x2="104.17" y2="67.92" gradientTransform="translate(-1.43 -0.11)" xlink:href="#linear-gradient"/><linearGradient id="linear-gradient-6" x1="211.95" y1="789.07" x2="211.95" y2="800.02" gradientTransform="translate(105.26 -765.26) rotate(14.92)" xlink:href="#linear-gradient"/><linearGradient id="linear-gradient-7" x1="2081.29" y1="2925.8" x2="2081.29" y2="2945.2" gradientTransform="translate(2180.34 -2883.7) rotate(70.34)" xlink:href="#linear-gradient"/></defs><path class="cls-1" d="M136.17,145.4a29.37,29.37,0,0,1,8.39-21.27q8.4-8.62,21.75-8.63a34.26,34.26,0,0,1,15.51,3.67v5.44a27.46,27.46,0,0,0-15.51-4.56q-11.19,0-18.23,7.24a26.51,26.51,0,0,0,.08,36.05q7.11,7.24,18.47,7.24a27.63,27.63,0,0,0,16.23-5V171a31.53,31.53,0,0,1-16.47,4.15q-13.27,0-21.75-8.51T136.17,145.4Z"/><path class="cls-1" d="M218.11,167.86a20.47,20.47,0,0,1-4-8.63,60.88,60.88,0,0,1-1.07-12.48V116.38H218v30q0,13.36,4,18.47,4.47,5.76,13.75,5.76,10.16,0,14.39-6.8,3.12-5,3.12-17.26V116.38h4.71v29.9a68.83,68.83,0,0,1-.88,12.19,22.12,22.12,0,0,1-3.19,8.27q-5.68,8.4-18.39,8.39Q223.86,175.13,218.11,167.86Z"/><path class="cls-1" d="M291.18,174.26V116.38h4.88v53.4h28.69v4.48Z"/><path class="cls-1" d="M369.68,174.26V120.85h-19.9v-4.47h44.68v4.47h-19.9v53.41Z"/><circle class="cls-2" cx="337.92" cy="144.66" r="3.21"/><circle class="cls-2" cx="197.12" cy="144.71" r="3.21"/><circle class="cls-2" cx="274.84" cy="144.71" r="3.21"/><path class="cls-1" d="M137.6,46.81h20.28q9.44,0,14.15,3t4.71,10.11q0,11-11.19,13.12v.15q13.57,2,13.57,13.91,0,8.72-5.56,12.2t-16,3.47H137.6v-1.52H142V48.33H137.6Zm17.64,1.52V73H157q3.52,0,4.92-2.52t1.39-7.72V59q0-5.91-1.22-8.27t-4.68-2.36Zm0,26.14v26.78h3.18a5.34,5.34,0,0,0,5.23-3c1-2,1.49-5,1.49-9V85q0-5.28-1.83-7.92t-6.51-2.64Z"/><path class="cls-1" d="M186.28,98.26q-4.38-5.33-4.38-14.79T186.82,69a16.74,16.74,0,0,1,12.52-5q15.39,0,14.79,18.23H195v3.12q0,7.83,1.7,11.83a6,6,0,0,0,5.9,4q7.88,0,10.32-9.92l1.22.24a17.23,17.23,0,0,1-4.65,9q-3.36,3.2-10.08,3.19Q190.65,103.57,186.28,98.26Zm8.78-17.71h7V76.63a39.62,39.62,0,0,0-.64-8.83c-.43-1.57-1.29-2.36-2.58-2.36s-2.24.84-2.85,2.52-.92,4.57-.92,8.67Z"/><path class="cls-1" d="M232.85,84h2V77.83q0-7.59-.71-10.19c-.48-1.73-1.39-2.6-2.75-2.6a3.48,3.48,0,0,0-2.2.76,2.48,2.48,0,0,0-1,2.08,9.38,9.38,0,0,0,.41,2.68h1.69a12.91,12.91,0,0,1,.55,4,5.6,5.6,0,0,1-1.7,4.08,5.73,5.73,0,0,1-4.27,1.72q-5.83,0-5.84-6.64,0-9.82,14.18-9.83,8.07,0,11.16,3.24T247.44,79V95.26q0,4.15,2,4.16,2.31,0,2.71-8.24l1,.08q-.27,7-2.24,9.68t-6.44,2.63q-8.15,0-9.37-5.91a8.74,8.74,0,0,1-2.64,4.47,8,8,0,0,1-5.16,1.44q-10,0-10-9.67,0-5.67,3.83-7.79T232.85,84Zm-2.34,15.19a1.45,1.45,0,0,0,1.43,1.2c.7,0,1.35-.68,2-2a13.91,13.91,0,0,0,.92-5.64V85.27h-.47q-4.22,0-4.21,7.27v1.28A23.22,23.22,0,0,0,230.51,99.18Z"/><path class="cls-1" d="M292.83,102.77H277.36l-.74-5.83a10.38,10.38,0,0,1-3.23,4.91c-1.42,1.15-3.54,1.72-6.34,1.72q-10.51,0-10.52-13.35V66.16h-3.8V64.72h16.42V92.14a21.47,21.47,0,0,0,.58,6.32A2.24,2.24,0,0,0,272,100c1.15,0,2.18-.83,3.08-2.48a14.4,14.4,0,0,0,1.36-6.88V66.16h-3.12V64.72H289.1v36.61h3.73Z"/><path class="cls-1" d="M297.58,91.34V66.16h-3.73V64.72h3.73V54.41l12.62-3.68v14H319v1.44H310.2V93.1a17.29,17.29,0,0,0,.64,5.52,2.59,2.59,0,0,0,2.68,1.76q2,0,3.57-2.4a15.69,15.69,0,0,0,2-6.56l1.15.16a17.16,17.16,0,0,1-3,8.76q-2.44,3.22-8.08,3.23t-8.61-2.63Q297.57,98.3,297.58,91.34Z"/><path class="cls-1" d="M319.9,66.16V64.72h19.68v1.44h-3.67l7.4,26.54,7.87-26.54h-4.55V64.72h9.57v1.44h-3.39l-12.69,43.09q-2.24,7.52-5,10.51a9.66,9.66,0,0,1-13.09.84,7.22,7.22,0,0,1-2.31-5.52,7.73,7.73,0,0,1,1.49-5.11,4.93,4.93,0,0,1,3.94-1.76q5.63,0,5.63,5.52a12.55,12.55,0,0,1-.41,2.87H328a5,5,0,0,0-.14,3,1.73,1.73,0,0,0,1.83,1.2q2.79,0,4.95-3.24a37.49,37.49,0,0,0,4.14-9.87l1.5-5h-6L322.68,66.16Z"/><path class="cls-3" d="M126.39,103.83c6.74-20.7,4.7-32.77,4.7-32.77-1.52-8.94-5.07-13.53-5.86-14.53a25.35,25.35,0,0,0-5.87-5.35,28.91,28.91,0,0,0-10.7-3.82C94,45.3,75.25,61.28,76,62.65c.46.79,8.15-4.77,21.41-5.61,7.2-.45,10.77.82,13.25,2.3a19.06,19.06,0,0,1,7.13,7.9c4.61,8.82,1.53,18,.77,20.13,0,0-3.6,10.08-20.77,16.83a13.92,13.92,0,0,0-3.06,1.54c-1.63,1.08-2,2-5.53,3.41-13.58,5.57-22.39-1.9-35.2,4.73-.51.27-1.11.58-1.72.92-1.63.91-3.21,2-3.37,3-.25,1.7,3.19,3.35,6.77,5.66,5.24,3.37,6.93,5.65,9.47,7.55,7,5.26,23.51,9.8,37.89,2.52,9.25-4.68,16.18-13.51,17.76-17.62,0-.14.15-.39.29-.74a41.93,41.93,0,0,1,3.26-6.14A28.76,28.76,0,0,0,126.39,103.83Z"/><path class="cls-4" d="M76.59,124.18l1.16-3.12,1.85-5a1.45,1.45,0,0,1,1.87-.86l2.17.81a1.5,1.5,0,0,1,.88,1.92L84,119.33l-1.45,3.91"/><polygon class="cls-4" points="88.48 101 88.14 100.87 87.79 100.74 82.42 115.18 83.11 115.43 88.48 101"/><line class="cls-4" x1="90.01" y1="95.85" x2="82.79" y2="115.28"/><path class="cls-5" d="M89.77,95.59l.55.2"/><path class="cls-6" d="M89.53,95.79l.83.31"/><path class="cls-6" d="M89.22,96l1.25.47"/><path class="cls-6" d="M89.12,96.27l1.24.47"/><path class="cls-6" d="M89,96.55l1.25.46"/><path class="cls-6" d="M88.91,96.83l1.25.46"/><path class="cls-6" d="M88.81,97.1l1.25.47"/><path class="cls-5" d="M88.6,97.66l1.25.46"/><path class="cls-6" d="M88.6,97.66l1.25.46"/><path class="cls-6" d="M88.49,97.94l1.25.47"/><path class="cls-6" d="M88.39,98.21l1.25.46"/><path class="cls-6" d="M88.29,98.49l1.24.46"/><path class="cls-6" d="M88.18,98.76l1.25.46"/><path class="cls-6" d="M88.7,97.39l1.25.47"/><path class="cls-6" d="M88.07,99l1.25.46"/><path class="cls-6" d="M88,99.31l1.25.46"/><path class="cls-6" d="M87.86,99.58l1.25.46"/><path class="cls-6" d="M87.75,99.85l1.25.47"/><path class="cls-6" d="M87.85,100.2l.86.32"/><g id="lips"><path class="cls-7" d="M91.86,127.75c1-.18,1.62-.24,2.78-.36,2-.22,1.65-.22,3.36-.4,2-.21,2.3-.19,3.5-.36s2-.33,2.53-.45l1.9-.71c2.46-.94,5.4-2.19,5.4-2.19.64-.31,1.5-.75,2.48-1.32s1.37-.87,1.41-.82-3.65,4.85-9,8.39A37,37,0,0,1,93,134.88c-4,.79-12.74,2.49-21-2.18a24.16,24.16,0,0,1-5.52-4.34,38.62,38.62,0,0,0,4,1,32.66,32.66,0,0,0,13.15.18,35.45,35.45,0,0,0,3.7-.88c1.27-.23,2.3-.44,3-.6S91.32,127.85,91.86,127.75Z"/><path class="cls-8" d="M78.37,130a34.35,34.35,0,0,1-9.32-.8c-.94-.19-1.72-.38-2.25-.52l-.83.13.79-.26c2.8-1,5-1.81,6.7-2.55s3-1.39,4-1.93c3.58-2,3-2.56,6.25-1.73l.38.1c5.71,1.51,11-3,11-3L115.41,121c-6.87,4.14-11.9,5.28-15.3,5.51-1,.07-2.94.14-5.85.51a73.17,73.17,0,0,0-8.52,1.59A30.69,30.69,0,0,1,78.37,130Z"/></g><path class="cls-4" d="M75.36,116.62s0,.08,0,.22c.32-1.32.65-2.64,1-4s.64-2.48,1-3.71h0"/><path class="cls-4" d="M78.35,117.29c0,.06,0,.13,0,.19s-.08.27-.12.42c-1.44,4.88-3.16,10.77-4.36,14.81"/><path class="cls-4" d="M71.24,132.64l-.3,1.19c-.19.75-.64,2.6-.15,3.25a.76.76,0,0,0,.87.23,1.55,1.55,0,0,0,.28-.15"/><path class="cls-4" d="M73.35,124.38c.57-2.23,1.23-4.77,2-7.57a1.33,1.33,0,0,1,0-.19h0"/><path class="cls-4" d="M79.24,96.14l6.09,1.62-4.87,12.18-3.25-.81Z"/><path class="cls-4" d="M79.41,96a2.75,2.75,0,0,1-.17-.45,1.9,1.9,0,0,1,0-.82c.28-2.3.42-3.45.81-4.06,1.28-2,4.82-2.4,6.9-1.21a2.41,2.41,0,0,1,1.22,1.21c.32.87-.22,1.61-1.22,3.66-1.31,2.7-1.08,2.88-1.62,3.25"/><polygon class="cls-4" points="77.21 109.13 80.46 109.94 74.04 131.98 73.64 123.27 77.21 109.13"/><path class="cls-4" d="M70.33,132.57l-5.62,1.33a.47.47,0,0,1-.55-.37L63.1,129l-1.46-6.18,6.49-1.53,1.46,6.17L70.66,132A.46.46,0,0,1,70.33,132.57Z"/><path class="cls-4" d="M67.94,121.06l-6.19,1.47a.48.48,0,0,1-.58-.35c-1.68-6.46-3.57-13.13-5.72-20q-2.13-6.82-4.39-13.26l10.4-2.71q1.17,6.87,2.54,14,2,10.45,4.3,20.31A.48.48,0,0,1,67.94,121.06Z"/><rect class="cls-9" x="50.53" y="86.26" width="11.17" height="1.52" transform="translate(-20.61 17.49) rotate(-15)"/><path class="cls-4" d="M74.44,137.62a3,3,0,0,1-.65,2.24.82.82,0,0,1-.92.08,1.51,1.51,0,0,1-.46-.65,9.4,9.4,0,0,1-.5-2.52c0-.47-.12-1.15-.2-2-.29-3.12-.81-8.66-1.45-15.83a1.49,1.49,0,0,0,0-.21h0l.07.23c-.15-1.38-.29-2.76-.42-4.16s-.24-2.6-.35-3.89l3.31-.33c0-.19,0-.37,0-.55.06,1.11.25,4.36.48,8.33a1.34,1.34,0,0,1,0,.2l0,.44c.14,2.38.29,5,.43,7.52.18,3,.35,6,.48,8.33C74.35,135.91,74.4,136.85,74.44,137.62Z"/><path class="cls-4" d="M64.87,91.07c.52-.75,1.92.31,4.84,0,2.67-.25,4-1.37,4.57-.75.23.26,0,.47-.49,3.2-.21,1.19-.35,2.2-.43,2.84,0,.33-.08.61-.1.84L67,97.74c-.08-.17-.14-.31-.17-.39a5.68,5.68,0,0,1-.28-.78C65.82,94.23,64.23,92,64.87,91.07Z"/><path class="cls-4" d="M72.88,109.69l0,.88-3.31.57S67,98,67,98l6.28-.53h.09l-.48,12.8"/><ellipse class="cls-2" cx="86.18" cy="172.34" rx="18.94" ry="2.68"/><rect class="cls-2" x="83.22" y="139.35" width="5.92" height="32.99"/><path class="cls-2" d="M127.43,100.83c-.68,25.59-22,44.63-44.05,43.29C61.92,142.8,46.29,122.54,45,105.88a30.86,30.86,0,0,1,.18-6.35q2.13,4.44,4.24,8.88A41.1,41.1,0,0,0,59,123.91c2.64,2.67,12.75,12.15,27.65,11.93a37.12,37.12,0,0,0,16.56-4.35C119.89,123,125.89,105.78,127.43,100.83Z"/><path class="cls-10" d="M67.51,98.19l2.29,12"/><path class="cls-10" d="M79.84,96.47l-2,12.61"/><path class="cls-11" d="M52.39,90.16c.39,1.29,1,3.3,1.82,5.75,1.15,3.44,1.71,4.81,2.62,7.57.55,1.69,1.33,4.18,2.15,7.28"/><path class="cls-12" d="M88.12,100.77c-1.75,4.87-3.47,9.46-5.33,14.47"/><path class="cls-13" d="M97.32,55.74c-7.39,2.08-11.42,11-10.45,12s5.77-6,14.27-6.88c9.84-1.05,17.21,6.68,17.59,6.12S108.1,52.72,97.32,55.74Z"/><path class="cls-14" d="M102.28,50.92c-6.72.09-12.15,6.75-11.54,7.79S97,55,104.36,56.1c8.57,1.32,13.07,9.53,13.51,9.14S112.09,50.8,102.28,50.92Z"/><path class="cls-15" d="M122,53.06c-6.88-9.72-22.06-10.94-23-9s11.74,5.32,17.51,17.27c6.68,13.82-.77,28.63.24,28.89C118.11,90.52,132.09,67.24,122,53.06Z"/><path class="cls-16" d="M46.47,108.78c-.17,0,.49,4.52,2.88,9.63a42.07,42.07,0,0,0,6.26,9.46,46.25,46.25,0,0,0,6.82,6.64c3.31,2.59,6.8,4.53,7,4.31s-6.15-4-12.33-11.43a57.73,57.73,0,0,1-3.9-5.27,46.33,46.33,0,0,1-2.7-4.24A65.54,65.54,0,0,1,46.47,108.78Z"/></svg>